<svg xmlns="http://www.w3.org/2000/svg" aria-hidden="true" style="position:absolute;width:0;height:0;overflow:hidden">
  <defs>
  <symbol id="icon-heroicons-solid_menu" viewBox="0 0 32 32">
      <path d="M4.799 8.001a1.6 1.6 0 0 1 1.6-1.6h19.2a1.6 1.6 0 0 1 0 3.2h-19.2a1.6 1.6 0 0 1-1.6-1.6zM4.799 16.001a1.6 1.6 0 0 1 1.6-1.6h19.2a1.6 1.6 0 0 1 0 3.2h-19.2a1.6 1.6 0 0 1-1.6-1.6zM4.799 24.001a1.6 1.6 0 0 1 1.6-1.6h19.2a1.6 1.6 0 0 1 0 3.2h-19.2a1.6 1.6 0 0 1-1.6-1.6z"/>
    </symbol>
    <symbol id="icon-facebook" viewBox="0 0 32 32">
      <path d="M21.329 5.313h2.921V.225C23.746.156 22.013 0 19.994 0c-4.212 0-7.097 2.649-7.097 7.519V12H8.249v5.688h4.648V32h5.699V17.689h4.46l.708-5.688h-5.169V8.082c.001-1.644.444-2.769 2.735-2.769z"/>
    </symbol>
    <symbol id="icon-instagram" viewBox="0 0 32 32">
      <path d="M31.969 9.408c-.075-1.7-.35-2.869-.744-3.882a7.806 7.806 0 0 0-1.851-2.838A7.867 7.867 0 0 0 26.542.844C25.523.45 24.36.175 22.66.1 20.947.019 20.403 0 16.059 0s-4.888.019-6.595.094c-1.7.075-2.869.35-3.882.744a7.803 7.803 0 0 0-2.838 1.85A7.867 7.867 0 0 0 .9 5.52C.506 6.539.231 7.702.156 9.402c-.081 1.713-.1 2.257-.1 6.601s.019 4.888.094 6.595c.075 1.7.35 2.869.744 3.882a7.895 7.895 0 0 0 1.85 2.838 7.867 7.867 0 0 0 2.832 1.844c1.019.394 2.182.669 3.882.744 1.706.075 2.25.094 6.595.094s4.888-.019 6.595-.094c1.7-.075 2.869-.35 3.882-.744a8.184 8.184 0 0 0 4.682-4.682c.394-1.019.669-2.182.744-3.882.075-1.707.094-2.251.094-6.595s-.006-4.888-.081-6.595zm-2.882 13.065c-.069 1.563-.331 2.407-.55 2.969a5.31 5.31 0 0 1-3.038 3.038c-.563.219-1.413.481-2.969.55-1.688.075-2.194.094-6.464.094s-4.782-.019-6.464-.094c-1.563-.069-2.407-.331-2.969-.55a4.926 4.926 0 0 1-1.838-1.194 4.974 4.974 0 0 1-1.194-1.838c-.219-.563-.481-1.413-.55-2.969-.075-1.688-.094-2.194-.094-6.464s.019-4.782.094-6.464c.069-1.563.331-2.407.55-2.969a4.868 4.868 0 0 1 1.2-1.838A4.974 4.974 0 0 1 6.639 3.55c.563-.219 1.413-.481 2.969-.55 1.688-.075 2.194-.094 6.464-.094 4.276 0 4.782.019 6.464.094 1.563.069 2.407.331 2.969.55a4.914 4.914 0 0 1 1.838 1.194 4.974 4.974 0 0 1 1.194 1.838c.219.563.481 1.413.55 2.969.075 1.688.094 2.194.094 6.464s-.019 4.77-.094 6.458z"/>
      <path d="M16.059 7.783c-4.538 0-8.22 3.682-8.22 8.22s3.682 8.22 8.22 8.22c4.539 0 8.22-3.682 8.22-8.22s-3.682-8.22-8.22-8.22zm0 13.552a5.333 5.333 0 0 1 0-10.664 5.333 5.333 0 0 1 0 10.664zM26.524 7.458a1.919 1.919 0 1 1-3.838 0 1.919 1.919 0 0 1 3.838 0z"/>
    </symbol>
    <symbol id="icon-linkedin" viewBox="0 0 32 32">
      <path d="M31.992 32v-.001H32V20.263c0-5.741-1.236-10.164-7.948-10.164-3.227 0-5.392 1.771-6.276 3.449h-.093v-2.913h-6.364v21.364h6.627V21.42c0-2.785.528-5.479 3.977-5.479 3.399 0 3.449 3.179 3.449 5.657v10.401h6.62zM.528 10.636h6.635V32H.528V10.636zM3.843 0C1.722 0 0 1.721 0 3.843s1.721 3.879 3.843 3.879c2.121 0 3.843-1.757 3.843-3.879A3.846 3.846 0 0 0 3.843 0z"/>
    </symbol>
    <symbol id="icon-Logo" viewBox="0 0 39 32">
      <path d="m22.372 9.661-.749-.572a.57.57 0 0 0-.8.08l-10.36 11.905.16.177 2.566-2.367a.393.393 0 0 1-.239-.445c.018-.09.068-.172.14-.229a.403.403 0 0 1 .485-.011.391.391 0 0 1 .141.198l3.383-3.139a.29.29 0 0 1 .366 0l.171.126a.285.285 0 0 0 .383-.045l4.423-4.963a.47.47 0 0 0 .067-.565.473.473 0 0 0-.136-.149z"/>
      <path d="M27.24 13.012a23.13 23.13 0 0 1-7.497 3.517 40.553 40.553 0 0 1-8.154 1.212c.055.406.155.805.297 1.189 1.554 1.407 13.257-.995 15.543-3.774.486-.578-.189-2.144-.189-2.144zm-13.897 5.872a.387.387 0 0 1-.359-.24.393.393 0 0 1 .084-.424.39.39 0 0 1 .598.059.395.395 0 0 1-.046.493.375.375 0 0 1-.277.112zM2.286 12.188l.091-.395 1.486.337c.123.226.198.475.223.732.028.272.011.546-.051.812a2.15 2.15 0 0 1-.491.995 1.96 1.96 0 0 1-.88.572c-.35.108-.723.122-1.08.04a1.998 1.998 0 0 1-.954-.503 1.892 1.892 0 0 1-.543-.898 2.156 2.156 0 0 1 0-1.144c.061-.28.172-.547.326-.789.146-.22.342-.402.571-.532l.206.314a1.626 1.626 0 0 0-.754 1.11c-.071.296-.065.605.017.898.077.278.229.53.44.726.217.21.488.354.783.417.286.08.588.08.874 0 .274-.09.52-.25.714-.463.2-.23.337-.508.4-.806.094-.362.07-.745-.069-1.092l-1.309-.332zM5.52 8.592 4.189 10.37l.571 1.024-.263.354-2.114-3.86.246-.337 4.303.926-.269.354-1.143-.24zM5.143 8.5l-2.286-.515L4 10.038 5.143 8.5zM5.143 4.904l.343-.257 2.177 2.916 1.794-1.344.217.292-2.131 1.595-2.4-3.202zM8.743 2.519l.383-.172 1.509 3.305 2.04-.926.149.332-2.423 1.104L8.744 2.52zM16.274 3.834l.086.36-2.754.646-.914-3.9 2.674-.623.08.355-2.286.532.326 1.384 2.011-.475.086.355-2.017.469.343 1.447 2.366-.549zM20.2 3.977l-.954-1.258a2.847 2.847 0 0 1-.32 0l-1.074.034.04 1.269h-.423L17.338.019l1.52-.006a1.8 1.8 0 0 1 1.211.326 1.252 1.252 0 0 1 .469.995c.017.283-.057.563-.211.801a1.329 1.329 0 0 1-.663.486l1 1.338-.463.017zm-.4-1.881a.91.91 0 0 0 .291-.75.926.926 0 0 0-.337-.732 1.385 1.385 0 0 0-.897-.234l-1.086.04.069 2.001 1.063-.034c.324.012.642-.091.897-.292zM23.309 2.914l-.206 1.367-.417-.063.211-1.344L21.714.015l.446.069 1.011 2.436L24.885.502l.4.086-1.977 2.327zM28.874 2.674l.497.646-.217.172-.497-.663-.314.749-.24-.103.32-.749-.823.109v-.274l.811-.091-.503-.646.223-.172.44.652.309-.755.246.103-.291.766.823-.114v.28l-.783.091zM30.783 7.282a1.587 1.587 0 0 1-.246-.692l.337-.149c.025.227.099.445.217.64.128.219.294.413.491.572.204.195.464.321.743.36a.623.623 0 0 0 .537-.223.509.509 0 0 0 .131-.389 1.058 1.058 0 0 0-.137-.394 5.873 5.873 0 0 0-.349-.509 5.108 5.108 0 0 1-.411-.629 1.152 1.152 0 0 1-.149-.537c0-.212.079-.416.223-.572.125-.151.289-.264.474-.326.207-.06.427-.06.634 0 .267.087.514.227.726.412.176.146.332.316.463.503.121.174.212.367.269.572l-.326.172a2.026 2.026 0 0 0-.251-.537 2.047 2.047 0 0 0-.383-.395 1.272 1.272 0 0 0-.737-.349.61.61 0 0 0-.537.234.493.493 0 0 0-.131.389c.013.144.06.283.137.406.08.131.194.303.349.509.153.195.291.401.411.618.095.164.148.348.154.537a.842.842 0 0 1-.223.572 1.02 1.02 0 0 1-.48.326 1.104 1.104 0 0 1-.634 0 2.11 2.11 0 0 1-.731-.412 2.591 2.591 0 0 1-.571-.709zM36.531 8.117l-.806-1.144.297-.212 1.857 2.653-.297.212-.806-1.144-2.983 2.087-.24-.349 2.977-2.104zM35.251 12.817c.102-.346.3-.655.571-.892.265-.238.589-.402.937-.475a2.06 2.06 0 0 1 1.074.04c.336.111.638.308.874.572.246.283.414.626.486.995.095.362.095.742 0 1.104a1.965 1.965 0 0 1-.571.892 2.123 2.123 0 0 1-2.04.446 1.91 1.91 0 0 1-.874-.572 2.16 2.16 0 0 1-.486-.989 2.196 2.196 0 0 1 .029-1.121zM36 14.636c.191.217.438.378.714.463a1.765 1.765 0 0 0 1.657-.366c.211-.194.367-.441.451-.715a1.849 1.849 0 0 0-.371-1.681 1.626 1.626 0 0 0-.737-.463 1.705 1.705 0 0 0-.88 0c-.291.056-.56.193-.777.395a1.591 1.591 0 0 0-.451.72c-.078.29-.078.596 0 .886.063.284.199.546.394.761zM34.817 19.456l1.48-.572c0-.103.034-.206.063-.314l.28-1.035-1.211-.314.109-.406 3.863 1.035-.389 1.447a1.82 1.82 0 0 1-.663 1.064 1.245 1.245 0 0 1-1.086.16 1.238 1.238 0 0 1-.977-1.206l-1.577.572.109-.429zm1.914.16a1.034 1.034 0 0 0 .635.498 1.018 1.018 0 0 0 .799-.115c.252-.203.424-.488.486-.806l.274-1.029-1.937-.52-.274 1.029c-.105.307-.099.641.017.943zM32.766 23.138l-.291-.223 1.714-2.259 3.189 2.419-1.657 2.19-.291-.223 1.4-1.847-1.143-.863-1.251 1.652-.286-.217 1.28-1.652-1.183-.898-1.48 1.921zM31.428 27.696l-.817.046v-.274l.817-.006-.44-.68.223-.143.434.686.354-.766.246.131-.389.72.817-.046v.28h-.829l.44.68-.223.143-.434-.686-.377.743-.24-.137.417-.692zM24 27.238l.691.383a1.77 1.77 0 0 1 1.143-.903c.227-.071.466-.096.703-.074.206.016.403.087.571.206a.908.908 0 0 1 .32.457c.069.226.057.468-.034.686a2.862 2.862 0 0 1-.571.795c.188.101.363.226.52.372a.987.987 0 0 1 .234.395.761.761 0 0 1-.149.669c-.153.22-.38.377-.64.44a.996.996 0 0 1-.709 0 .713.713 0 0 1-.412-.486.776.776 0 0 1 .04-.572c.131-.26.303-.497.509-.703l-1.377-.766a2.704 2.704 0 0 0-.034.818h-.349a2.746 2.746 0 0 1 .114-.995l-.72-.4.149-.32zm.994.572 1.514.841a2.4 2.4 0 0 0 .486-.658.725.725 0 0 0 0-.515.618.618 0 0 0-.4-.429 1.143 1.143 0 0 0-.731 0 1.36 1.36 0 0 0-.891.744l.023.017zm2.149 2.287a.523.523 0 0 0 .046-.423.7.7 0 0 0-.183-.297 2.452 2.452 0 0 0-.474-.314 2.938 2.938 0 0 0-.451.572.576.576 0 0 0-.046.423.482.482 0 0 0 .251.303.637.637 0 0 0 .451 0 .68.68 0 0 0 .383-.269l.023.006zM17.034 31.647l.08-4.003h.406l-.063 3.202 1.623-2.665h.2l1.52 2.71.057-3.185h.406l-.074 4.003h-.349l-1.68-2.991-1.777 2.933-.349-.006zM15.046 27.461a1.951 1.951 0 0 1 .52 1.979 2.03 2.03 0 0 1-.543.932 1.92 1.92 0 0 1-.92.503 2.217 2.217 0 0 1-1.109-.034 2.155 2.155 0 0 1-.96-.52 1.925 1.925 0 0 1-.531-.903 2.111 2.111 0 0 1 .572-2.012c.25-.249.561-.427.903-.515a2.205 2.205 0 0 1 1.103.034c.363.092.696.277.966.538zm-1.949-.2a1.52 1.52 0 0 0-.737.412c-.21.21-.361.473-.434.761-.08.286-.08.589 0 .875.067.278.212.532.417.732.215.21.481.362.771.44.291.074.595.074.886 0 .28-.069.536-.211.743-.412.209-.211.359-.473.434-.76.08-.288.08-.593 0-.881a1.607 1.607 0 0 0-.423-.732 1.711 1.711 0 0 0-.777-.435 1.643 1.643 0 0 0-.88 0zM8.771 24.602l.154 1.572c.098.042.193.09.286.143l.931.538.629-1.109.371.212-2 3.448-1.303-.749a1.819 1.819 0 0 1-.857-.915 1.257 1.257 0 0 1 .126-1.087c.133-.251.343-.451.6-.572.261-.108.549-.13.823-.063l-.166-1.681.406.263zm-.651 1.807a1.036 1.036 0 0 0-.642.487 1.021 1.021 0 0 0-.095.8c.134.296.366.536.657.68l.92.532 1-1.715-.92-.532a1.413 1.413 0 0 0-.92-.28v.029zM5.389 21.92l.257-.257 1.971 2.03-2.857 2.79-1.903-1.967.263-.257 1.617 1.664.977-.989-1.417-1.475.274-.263 1.446 1.487 1.063-1.035-1.691-1.727zM1.143 19.673l.137-.789.269.04-.154.812.76-.28.091.252-.771.263.634.538-.183.206-.611-.572-.143.812-.274-.051.16-.812-.766.274-.086-.223.766-.269-.634-.532.189-.206.617.538z" />
    </symbol>
    <symbol id="icon-twitter" viewBox="0 0 32 32">
      <path d="M32 6.078c-1.19.522-2.458.868-3.78 1.036a6.523 6.523 0 0 0 2.886-3.626 13.11 13.11 0 0 1-4.16 1.588A6.574 6.574 0 0 0 22.154 3c-3.632 0-6.556 2.948-6.556 6.562 0 .52.044 1.02.152 1.496-5.454-.266-10.28-2.88-13.522-6.862a6.605 6.605 0 0 0-.898 3.316 6.57 6.57 0 0 0 2.914 5.452 6.479 6.479 0 0 1-2.964-.808v.072c0 3.188 2.274 5.836 5.256 6.446a6.548 6.548 0 0 1-1.72.216 5.8 5.8 0 0 1-1.242-.112c.85 2.598 3.262 4.508 6.13 4.57a13.182 13.182 0 0 1-8.134 2.798c-.538 0-1.054-.024-1.57-.09A18.469 18.469 0 0 0 10.064 29c12.072 0 18.672-10 18.672-18.668 0-.29-.01-.57-.024-.848A13.087 13.087 0 0 0 32 6.078z"/>
    </symbol>
    <symbol id="icon-email" viewBox="0 0 24 32">
      <path d="M20 8H4c-1.1 0-1.99.9-1.99 2L2 22c0 1.1.9 2 2 2h16c1.1 0 2-.9 2-2V10c0-1.1-.9-2-2-2zm-.4 4.25-7.07 4.42c-.32.2-.74.2-1.06 0L4.4 12.25a.85.85 0 1 1 .9-1.44L12 15l6.7-4.19a.85.85 0 1 1 .9 1.44z"/>
    </symbol>
    <symbol id="icon-phone" viewBox="0 0 32 32">
      <path d="m28.865 21.822-4.525-.517a3.543 3.543 0 0 0-2.921 1.015l-3.278 3.278A26.8 26.8 0 0 1 6.402 13.859l3.296-3.296a3.545 3.545 0 0 0 1.015-2.921l-.517-4.489A3.566 3.566 0 0 0 6.651 0H3.569C1.556 0-.118 1.675.006 3.687.95 18.9 13.117 31.049 28.312 31.993c2.013.125 3.687-1.55 3.687-3.563v-3.082c.018-1.799-1.336-3.313-3.135-3.527z"/>
    </symbol>
    <symbol id="icon-location2" viewBox="0 0 32 32">
      <path d="M16 0C10.477 0 6 4.477 6 10c0 10 10 22 10 22s10-12 10-22c0-5.523-4.477-10-10-10zm0 16.125a6.125 6.125 0 1 1 0-12.25 6.125 6.125 0 0 1 0 12.25zM12.125 10a3.875 3.875 0 1 1 7.75 0 3.875 3.875 0 0 1-7.75 0z"/>
    </symbol>
  </defs>
</svg>
